<?xml version="1.0" encoding="utf-8"?>
<!-- Generator: Adobe Illustrator 26.4.1, SVG Export Plug-In . SVG Version: 6.00 Build 0)  -->
<svg version="1.1" id="Шар_2" xmlns="http://www.w3.org/2000/svg" xmlns:xlink="http://www.w3.org/1999/xlink" x="0px" y="0px"
	 viewBox="0 0 1667 194" style="enable-background:new 0 0 1667 194;" xml:space="preserve">
<style type="text/css">
	.st0{fill:#8A56C4;stroke:#8A56C4;stroke-miterlimit:10;}
	.st1{fill:#FFFFFF;stroke:#FFFFFF;stroke-miterlimit:10;}
	.st2{fill:#8B57C6;stroke:#8B57C6;stroke-miterlimit:10;}
</style>
<path class="st0" d="M45.8,47.01v140.32H10.08V42.9c0-2.91,0.64-6.46,1.93-10.67c1.29-4.2,3.43-8.18,6.42-11.95
	c3-3.77,6.85-6.98,11.56-9.64c4.71-2.65,10.41-3.98,17.09-3.98c4.63,0,8.69,0.73,12.21,2.18c3.51,1.46,6.55,3.26,9.12,5.4
	c2.57,2.14,4.58,4.5,6.04,7.07c1.45,2.57,2.44,4.97,2.96,7.2l26.99,105.37l26.98-105.37c0.51-2.22,1.54-4.63,3.08-7.2
	s3.55-4.92,6.04-7.07c2.48-2.14,5.48-3.94,9-5.4c3.51-1.45,7.58-2.18,12.21-2.18c6.68,0,12.38,1.33,17.09,3.98
	c4.71,2.66,8.57,5.87,11.56,9.64c3,3.77,5.14,7.75,6.42,11.95c1.29,4.2,1.93,7.75,1.93,10.67v144.43h-35.72V47.01l-33.92,122.85
	c-0.51,1.71-1.37,3.6-2.57,5.65c-1.2,2.06-2.79,3.94-4.75,5.65c-1.97,1.71-4.41,3.17-7.32,4.37c-2.92,1.2-6.26,1.8-10.02,1.8
	c-3.77,0-7.07-0.6-9.89-1.8c-2.83-1.2-5.27-2.65-7.32-4.37c-2.06-1.71-3.69-3.6-4.88-5.65c-1.2-2.06-2.06-3.94-2.57-5.65L45.8,47.01
	z"/>
<path class="st1" d="M387.4,129.77c-2.23,6.86-5.31,13.97-9.25,21.33c-3.94,7.37-9.25,14.01-15.93,19.92
	c-6.68,5.91-15.08,10.79-25.19,14.65c-10.11,3.86-22.36,5.78-36.75,5.78c-12.17,0-22.87-1.59-32.12-4.75
	c-9.25-3.17-17.18-7.32-23.77-12.46c-6.6-5.14-12.08-11.05-16.45-17.73c-4.37-6.68-7.88-13.49-10.54-20.43
	c-2.66-6.94-4.5-13.79-5.53-20.56c-1.03-6.77-1.54-12.81-1.54-18.12c0-4.97,0.34-9.85,1.03-14.65c0.68-4.79,1.71-9.68,3.08-14.65
	c1.88-7.2,4.71-14.65,8.48-22.36c3.77-7.71,9.04-14.78,15.81-21.2c6.77-6.42,15.33-11.69,25.7-15.81c10.36-4.11,23-6.17,37.91-6.17
	c12.34,0,23.09,1.59,32.25,4.75c9.16,3.17,17.09,7.37,23.77,12.59c6.68,5.23,12.21,11.22,16.58,17.99
	c4.37,6.77,7.84,13.67,10.41,20.69c2.57,7.03,4.37,13.92,5.4,20.69c1.03,6.77,1.54,12.81,1.54,18.12
	C392.28,108.69,390.65,119.49,387.4,129.77z M255.3,131.31c1.88,3.6,4.07,7.11,6.55,10.54c2.48,3.43,5.53,6.42,9.12,9
	c3.6,2.57,7.97,4.67,13.11,6.3c5.14,1.63,11.22,2.44,18.25,2.44c10.79,0,19.66-2.35,26.6-7.07c6.94-4.71,12.34-10.36,16.19-16.96
	c3.85-6.59,6.51-13.49,7.97-20.69c1.45-7.2,2.18-13.28,2.18-18.25c0-5.82-0.56-11.52-1.67-17.09c-1.12-5.57-3.04-11.09-5.78-16.58
	c-1.71-3.77-3.81-7.36-6.3-10.79c-2.49-3.43-5.61-6.46-9.38-9.12c-3.77-2.65-8.22-4.75-13.36-6.3c-5.14-1.54-11.31-2.31-18.5-2.31
	c-10.97,0-19.88,2.27-26.73,6.81c-6.85,4.54-12.21,10.07-16.06,16.58c-3.85,6.51-6.51,13.32-7.97,20.43
	c-1.46,7.11-2.18,13.24-2.18,18.38c0,5.83,0.6,11.65,1.8,17.48C250.33,119.92,252.39,125.66,255.3,131.31z"/>
<path class="st1" d="M500.81,166.52c-0.69,2.06-1.84,4.33-3.47,6.81c-1.63,2.49-3.69,4.75-6.17,6.81c-2.49,2.06-5.48,3.77-8.99,5.14
	c-3.51,1.37-7.5,2.06-11.95,2.06c-4.63,0-8.7-0.68-12.21-2.06c-3.51-1.37-6.51-3.08-9-5.14c-2.49-2.06-4.54-4.32-6.17-6.81
	c-1.63-2.48-2.79-4.75-3.47-6.81L385.68,6.67h37.52l46.77,140.06L517.01,6.67h37.26L500.81,166.52z"/>
<path class="st1" d="M607.01,6.67v180.67h-35.72V6.67H607.01z"/>
<path class="st1" d="M758.05,155.47v31.87h-99.2c-6.68,0-12.34-1.2-16.96-3.6c-4.63-2.4-8.35-5.35-11.18-8.87
	c-2.83-3.51-4.88-7.2-6.17-11.05c-1.29-3.85-1.93-7.24-1.93-10.15V40.33c0-2.91,0.64-6.34,1.93-10.28
	c1.29-3.94,3.34-7.62,6.17-11.05c2.83-3.43,6.55-6.34,11.18-8.74c4.63-2.4,10.28-3.6,16.96-3.6h99.2v31.87h-98.95l-0.51,0.51
	c0,0.17-0.04,0.3-0.13,0.39c-0.09,0.09-0.13,0.22-0.13,0.39l-0.26,0.51v41.12h93.29v31.87h-93.29v40.35l0.26,0.26
	c0,0.17,0.04,0.3,0.13,0.39c0.08,0.09,0.13,0.3,0.13,0.64l0.51,0.51H758.05z"/>
<path class="st2" d="M960.54,134.91c0,6.85-1.46,13.62-4.37,20.3c-2.92,6.68-7.45,12.72-13.62,18.12
	c-6.17,5.4-14.01,9.77-23.52,13.11s-20.86,5.01-34.05,5.01c-14.05,0-26.26-1.89-36.62-5.65c-10.37-3.77-18.89-8.61-25.57-14.52
	c-6.68-5.91-11.65-12.55-14.91-19.92c-3.26-7.36-4.88-14.65-4.88-21.84v-1.03l34.44-7.97v3.08c0,4.63,0.9,9.08,2.7,13.36
	c1.8,4.29,4.63,8.1,8.48,11.44c3.86,3.34,8.87,6.04,15.03,8.1c6.17,2.06,13.53,3.08,22.1,3.08c13.02,0,22.78-2.06,29.3-6.17
	c6.51-4.11,9.77-10.02,9.77-17.73c0-4.79-1.54-8.69-4.63-11.69c-3.08-3-7.28-5.44-12.59-7.32c-2.57-0.86-5.36-1.67-8.35-2.44
	c-3-0.77-6.21-1.58-9.64-2.44c-3.43-0.86-6.9-1.58-10.41-2.18c-3.51-0.6-7.07-1.33-10.67-2.18c-7.2-1.54-14.26-3.43-21.2-5.65
	c-6.94-2.22-13.11-5.18-18.5-8.87c-5.4-3.68-9.77-8.31-13.11-13.88c-3.34-5.57-5.01-12.55-5.01-20.95c0-6.34,1.29-12.81,3.85-19.4
	c2.57-6.59,6.68-12.55,12.34-17.86c5.65-5.31,12.98-9.68,21.97-13.11c9-3.43,19.83-5.14,32.51-5.14c12.85,0,23.9,1.67,33.15,5.01
	s16.92,7.71,23,13.11c6.08,5.4,10.58,11.44,13.49,18.12c2.91,6.68,4.37,13.28,4.37,19.79v0.51l-33.92,7.71v-1.03
	c-0.17-4.11-0.99-8.05-2.44-11.82c-1.46-3.77-3.77-7.11-6.94-10.02c-3.17-2.91-7.33-5.22-12.46-6.94
	c-5.14-1.71-11.48-2.57-19.02-2.57c-11.82,0-20.48,1.97-25.96,5.91c-5.49,3.94-8.22,9.25-8.22,15.93c0,4.11,1.54,7.41,4.63,9.89
	c3.08,2.49,7.28,4.67,12.59,6.55c2.57,0.86,5.35,1.63,8.35,2.31c3,0.69,6.21,1.46,9.64,2.31c3.43,0.69,6.89,1.37,10.41,2.06
	c3.51,0.69,7.07,1.46,10.67,2.31c7.2,1.71,14.26,3.77,21.2,6.17c6.94,2.4,13.11,5.61,18.5,9.64c5.4,4.03,9.77,9.08,13.11,15.16
	C958.87,118.76,960.54,126.17,960.54,134.91z"/>
<path class="st1" d="M1055.6,38.53v148.8h-35.72V38.53h-59.37V6.67h154.46v31.87H1055.6z"/>
<path class="st1" d="M1290.51,129.77c-2.23,6.86-5.31,13.97-9.25,21.33c-3.94,7.37-9.25,14.01-15.93,19.92
	c-6.68,5.91-15.08,10.79-25.19,14.65c-10.11,3.86-22.36,5.78-36.75,5.78c-12.17,0-22.87-1.59-32.12-4.75s-17.18-7.32-23.77-12.46
	c-6.6-5.14-12.08-11.05-16.45-17.73c-4.37-6.68-7.88-13.49-10.54-20.43c-2.66-6.94-4.5-13.79-5.53-20.56
	c-1.03-6.77-1.54-12.81-1.54-18.12c0-4.97,0.34-9.85,1.03-14.65c0.68-4.79,1.71-9.68,3.08-14.65c1.88-7.2,4.71-14.65,8.48-22.36
	c3.77-7.71,9.04-14.78,15.81-21.2c6.77-6.42,15.33-11.69,25.7-15.81c10.36-4.11,23-6.17,37.91-6.17c12.34,0,23.08,1.59,32.25,4.75
	c9.16,3.17,17.09,7.37,23.77,12.59c6.68,5.23,12.21,11.22,16.58,17.99c4.37,6.77,7.84,13.67,10.41,20.69
	c2.57,7.03,4.37,13.92,5.4,20.69c1.03,6.77,1.54,12.81,1.54,18.12C1295.39,108.69,1293.76,119.49,1290.51,129.77z M1158.41,131.31
	c1.88,3.6,4.07,7.11,6.55,10.54c2.48,3.43,5.53,6.42,9.12,9s7.97,4.67,13.11,6.3c5.14,1.63,11.22,2.44,18.25,2.44
	c10.79,0,19.66-2.35,26.6-7.07c6.94-4.71,12.34-10.36,16.19-16.96c3.86-6.59,6.51-13.49,7.97-20.69c1.45-7.2,2.18-13.28,2.18-18.25
	c0-5.82-0.56-11.52-1.67-17.09c-1.12-5.57-3.04-11.09-5.78-16.58c-1.71-3.77-3.81-7.36-6.3-10.79c-2.49-3.43-5.61-6.46-9.38-9.12
	c-3.77-2.65-8.22-4.75-13.36-6.3c-5.14-1.54-11.31-2.31-18.5-2.31c-10.97,0-19.88,2.27-26.73,6.81
	c-6.85,4.54-12.21,10.07-16.06,16.58c-3.86,6.51-6.51,13.32-7.97,20.43c-1.46,7.11-2.18,13.24-2.18,18.38
	c0,5.83,0.6,11.65,1.8,17.48C1153.44,119.92,1155.5,125.66,1158.41,131.31z"/>
<path class="st1" d="M1478.14,135.68c-1.2,6.17-3.6,12.55-7.2,19.15c-3.6,6.6-8.53,12.59-14.78,17.99
	c-6.26,5.4-13.97,9.85-23.13,13.36c-9.17,3.51-19.92,5.27-32.25,5.27c-12.17,0-22.87-1.59-32.12-4.75s-17.22-7.32-23.9-12.46
	c-6.68-5.14-12.21-11.05-16.58-17.73c-4.37-6.68-7.88-13.49-10.54-20.43c-2.66-6.94-4.5-13.79-5.53-20.56
	c-1.03-6.77-1.54-12.81-1.54-18.12c0-5.31,0.51-11.35,1.54-18.12c1.03-6.77,2.83-13.66,5.4-20.69c2.57-7.02,6.04-13.92,10.41-20.69
	c4.37-6.77,9.89-12.76,16.58-17.99c6.68-5.22,14.65-9.42,23.9-12.59c9.25-3.17,20.05-4.75,32.38-4.75s23.04,1.71,32.12,5.14
	c9.08,3.43,16.75,7.84,23,13.24c6.25,5.4,11.18,11.35,14.78,17.86c3.6,6.51,6,12.85,7.2,19.02v0.51l-34.95,8.48v-1.03
	c-0.34-3.77-1.41-7.49-3.21-11.18c-1.8-3.68-4.46-7.02-7.97-10.02c-3.51-3-7.8-5.44-12.85-7.32c-5.06-1.88-11.09-2.83-18.12-2.83
	c-10.97,0-19.92,2.27-26.86,6.81c-6.94,4.54-12.34,10.07-16.19,16.58c-3.85,6.51-6.51,13.32-7.97,20.43
	c-1.46,7.11-2.18,13.24-2.18,18.38c0,4.97,0.73,11.05,2.18,18.25c1.45,7.2,4.15,14.09,8.1,20.69c3.94,6.6,9.34,12.25,16.19,16.96
	c6.85,4.71,15.76,7.07,26.73,7.07c7.2,0,13.36-0.94,18.5-2.83c5.14-1.88,9.42-4.37,12.85-7.45c3.43-3.08,6.04-6.51,7.84-10.28
	c1.8-3.77,2.87-7.54,3.21-11.31v-1.03l34.95,8.48V135.68z"/>
<path class="st1" d="M1546.72,115.12c-2.57,2.57-5.06,5.01-7.45,7.32c-2.4,2.31-4.11,3.9-5.14,4.75v60.14h-35.72V6.67h35.72v73.5
	l75.82-73.5h48.83l-77.61,75.04c2.06,1.89,3.77,3.85,5.14,5.91l72.22,99.72h-42.4l-59.62-82.24l-0.51-0.51
	c0.51,0.35-0.26,1.59-2.31,3.73C1551.61,110.45,1549.29,112.72,1546.72,115.12z"/>
</svg>
